<svg width="257" height="87" viewBox="0 0 257 87" fill="none" xmlns="http://www.w3.org/2000/svg">
<circle cx="40" cy="46.8325" r="40" fill="#061022" fill-opacity="0.85"/>
<path d="M36.05 44.7H30.575V43.5H49.325V44.7H43.85V68.475C43.85 73.425 43.05 77.175 41.45 79.725C39.85 82.325 37.6 83.625 34.7 83.625C32.65 83.625 30.975 82.925 29.675 81.525C28.375 80.125 27.725 78.55 27.725 76.8C27.725 75.1 28.25 73.7 29.3 72.6C30.4 71.5 31.625 70.95 32.975 70.95C34.375 70.95 35.575 71.4 36.575 72.3C37.575 73.2 38.075 74.35 38.075 75.75C38.075 77.15 37.7 78.225 36.95 78.975C36.2 79.725 35.275 80.1 34.175 80.1C32.425 80.1 31.25 79.325 30.65 77.775C30.5 77.375 30.25 77.175 29.9 77.175C29.4 77.175 29.2 77.425 29.3 77.925C29.5 79.175 30.125 80.2 31.175 81C32.225 81.85 33.575 82.275 35.225 82.275C36.875 82.275 38.175 81.6 39.125 80.25C40.125 78.95 40.625 77.35 40.625 75.45C40.625 73.6 39.975 71.7 38.675 69.75C37.375 67.85 36.6 66.425 36.35 65.475C36.1 65.525 35.225 65.775 33.725 66.225C30.875 67.075 28.4 67.5 26.3 67.5C19.9 67.5 14.925 64.975 11.375 59.925C7.825 54.825 6.05 48.45 6.05 40.8C6.05 33.15 8.325 27.075 12.875 22.575C17.425 18.025 23.15 15.75 30.05 15.75C34 15.75 37.3 16.65 39.95 18.45C42.65 20.25 44 22.475 44 25.125C44 26.825 43.45 28.225 42.35 29.325C41.3 30.425 40.075 30.975 38.675 30.975C37.275 30.975 36.075 30.55 35.075 29.7C34.075 28.85 33.575 27.725 33.575 26.325C33.575 24.925 33.95 23.825 34.7 23.025C35.5 22.225 36.45 21.825 37.55 21.825C39.3 21.825 40.475 22.6 41.075 24.15C41.225 24.55 41.475 24.75 41.825 24.75C42.375 24.75 42.6 24.5 42.5 24C42.25 22.25 41.025 20.7 38.825 19.35C36.675 17.95 34 17.25 30.8 17.25C25.1 17.25 21.075 19.325 18.725 23.475C16.375 27.575 15.2 33.75 15.2 42C15.2 53.35 17.175 60.6 21.125 63.75C22.875 65.1 25.125 65.775 27.875 65.775C30.625 65.775 33.35 65.2 36.05 64.05V44.7Z" fill="#EEEAEA"/>
<path d="M105.824 61.8529C105.908 61.6009 105.95 61.3489 105.95 61.0969C105.95 60.8329 105.848 60.6049 105.644 60.4129C105.452 60.2089 105.278 60.1069 105.122 60.1069C104.966 60.1069 104.888 60.1549 104.888 60.2509C104.888 60.3469 104.936 60.4129 105.032 60.4489C105.404 60.5929 105.59 60.8689 105.59 61.2769C105.59 61.5409 105.494 61.7689 105.302 61.9609C105.11 62.1409 104.846 62.2309 104.51 62.2309C104.174 62.2309 103.904 62.1109 103.7 61.8709C103.496 61.6309 103.394 61.3429 103.394 61.0069C103.394 60.6709 103.526 60.3769 103.79 60.1249C104.054 59.8609 104.402 59.7289 104.834 59.7289C105.266 59.7289 105.614 59.8729 105.878 60.1609C106.154 60.4489 106.292 60.7549 106.292 61.0789C106.292 61.3909 106.25 61.6609 106.166 61.8889L103.088 70.8709C103.004 71.1349 102.932 71.3329 102.872 71.4649C102.692 71.8009 102.41 71.9689 102.026 71.9689H101.972L99.47 63.8689L97.13 70.8709C97.046 71.1349 96.968 71.3329 96.896 71.4649C96.728 71.8009 96.452 71.9689 96.068 71.9689H96.014L92.378 60.1969H91.1V59.9089H95.78V60.1969H94.448L97.148 69.4849H97.256L99.29 63.2929L98.336 60.1969H97.058V59.9089H101.738V60.1969H100.406L103.106 69.4849H103.214L105.824 61.8529ZM111.663 62.9689C112.563 62.9689 113.313 63.1609 113.913 63.5449C114.525 63.9289 114.831 64.5049 114.831 65.2729C114.831 66.4609 114.153 67.1929 112.797 67.4689C112.113 67.6009 111.261 67.6669 110.241 67.6669H109.395V68.1889C109.395 69.1609 109.593 69.9529 109.989 70.5649C110.397 71.1649 110.985 71.4649 111.753 71.4649C112.533 71.4649 113.139 71.2369 113.571 70.7809C114.015 70.3249 114.327 69.7369 114.507 69.0169L114.831 69.0529C114.639 69.9289 114.249 70.6369 113.661 71.1769C113.085 71.7049 112.353 71.9689 111.465 71.9689C110.217 71.9689 109.269 71.5609 108.621 70.7449C107.973 69.9169 107.649 68.8249 107.649 67.4689C107.649 66.1129 107.997 65.0269 108.693 64.2109C109.389 63.3829 110.379 62.9689 111.663 62.9689ZM109.395 67.3429H110.025C110.997 67.3429 111.675 67.2469 112.059 67.0549C112.455 66.8629 112.725 66.6289 112.869 66.3529C113.013 66.0649 113.085 65.6629 113.085 65.1469C113.085 64.6309 112.953 64.1929 112.689 63.8329C112.437 63.4609 112.047 63.2749 111.519 63.2749C110.991 63.2749 110.559 63.4669 110.223 63.8509C109.899 64.2229 109.677 64.6609 109.557 65.1649C109.449 65.6689 109.395 66.2269 109.395 66.8389V67.3429ZM118.994 64.9669H119.102C119.318 64.3549 119.636 63.8689 120.056 63.5089C120.488 63.1489 120.998 62.9689 121.586 62.9689C122.666 62.9689 123.464 63.3949 123.98 64.2469C124.508 65.0869 124.772 66.1549 124.772 67.4509C124.772 68.7469 124.502 69.8269 123.962 70.6909C123.422 71.5429 122.594 71.9689 121.478 71.9689C120.362 71.9689 119.57 71.4769 119.102 70.4929H118.994V71.6089H116.204V71.3389H117.392V59.4589H116.114V59.1889H116.492C117.428 59.1889 118.262 59.1109 118.994 58.9549V64.9669ZM118.958 67.4509V68.0989C118.958 69.0349 119.138 69.8329 119.498 70.4929C119.858 71.1409 120.422 71.4649 121.19 71.4649C122.018 71.4649 122.54 70.9969 122.756 70.0609C122.936 69.3049 123.026 68.5489 123.026 67.7929C123.026 67.0369 123.002 66.4609 122.954 66.0649C122.918 65.6689 122.84 65.2609 122.72 64.8409C122.612 64.4089 122.42 64.0729 122.144 63.8329C121.88 63.5929 121.556 63.4729 121.172 63.4729C120.8 63.4729 120.464 63.6109 120.164 63.8869C119.876 64.1509 119.648 64.4929 119.48 64.9129C119.132 65.7649 118.958 66.6109 118.958 67.4509ZM131.99 63.6889C132.278 63.9289 132.59 64.0489 132.926 64.0489C133.274 64.0489 133.586 64.0069 133.862 63.9229V71.3209H134.96C136.292 71.3209 137.27 70.9849 137.894 70.3129C138.434 69.7489 138.764 68.8129 138.884 67.5049C138.944 66.9649 138.974 66.2749 138.974 65.4349C138.974 64.5949 138.914 63.8569 138.794 63.2209C138.674 62.5729 138.476 61.9909 138.2 61.4749C137.624 60.4429 136.598 59.9269 135.122 59.9269C134.078 59.9269 133.274 60.1489 132.71 60.5929C132.53 60.7249 132.386 60.8869 132.278 61.0789C132.182 61.2709 132.134 61.4269 132.134 61.5469C132.134 61.6549 132.182 61.7089 132.278 61.7089C132.374 61.7089 132.44 61.6609 132.476 61.5649C132.62 61.1929 132.902 61.0069 133.322 61.0069C133.586 61.0069 133.808 61.1029 133.988 61.2949C134.18 61.4869 134.276 61.7509 134.276 62.0869C134.276 62.4229 134.156 62.6929 133.916 62.8969C133.676 63.1009 133.388 63.2029 133.052 63.2029C132.716 63.2029 132.416 63.0709 132.152 62.8069C131.9 62.5429 131.774 62.2069 131.774 61.7989C131.774 61.1509 132.086 60.6169 132.71 60.1969C133.334 59.7649 134.162 59.5489 135.194 59.5489C137.09 59.5489 138.56 60.0229 139.604 60.9709C140.648 61.9069 141.17 63.3649 141.17 65.3449C141.17 69.5209 139.226 71.6089 135.338 71.6089H130.676V71.3209H131.99V63.6889ZM147.066 62.9689C147.966 62.9689 148.716 63.1609 149.316 63.5449C149.928 63.9289 150.234 64.5049 150.234 65.2729C150.234 66.4609 149.556 67.1929 148.2 67.4689C147.516 67.6009 146.664 67.6669 145.644 67.6669H144.798V68.1889C144.798 69.1609 144.996 69.9529 145.392 70.5649C145.8 71.1649 146.388 71.4649 147.156 71.4649C147.936 71.4649 148.542 71.2369 148.974 70.7809C149.418 70.3249 149.73 69.7369 149.91 69.0169L150.234 69.0529C150.042 69.9289 149.652 70.6369 149.064 71.1769C148.488 71.7049 147.756 71.9689 146.868 71.9689C145.62 71.9689 144.672 71.5609 144.024 70.7449C143.376 69.9169 143.052 68.8249 143.052 67.4689C143.052 66.1129 143.4 65.0269 144.096 64.2109C144.792 63.3829 145.782 62.9689 147.066 62.9689ZM144.798 67.3429H145.428C146.4 67.3429 147.078 67.2469 147.462 67.0549C147.858 66.8629 148.128 66.6289 148.272 66.3529C148.416 66.0649 148.488 65.6629 148.488 65.1469C148.488 64.6309 148.356 64.1929 148.092 63.8329C147.84 63.4609 147.45 63.2749 146.922 63.2749C146.394 63.2749 145.962 63.4669 145.626 63.8509C145.302 64.2229 145.08 64.6609 144.96 65.1649C144.852 65.6689 144.798 66.2269 144.798 66.8389V67.3429ZM154.486 68.7829C154.654 69.4909 154.894 70.0669 155.206 70.5109C155.518 70.9429 155.872 71.1589 156.268 71.1589C156.676 71.1589 157.078 70.8949 157.474 70.3669C157.882 69.8269 158.212 69.1429 158.464 68.3149C158.728 67.4749 158.86 66.6529 158.86 65.8489C158.86 64.1449 158.386 63.2929 157.438 63.2929C157.318 63.2929 157.258 63.3409 157.258 63.4369C157.258 63.5329 157.312 63.5929 157.42 63.6169C157.756 63.6889 157.918 63.8869 157.906 64.2109C157.906 64.5229 157.816 64.7569 157.636 64.9129C157.468 65.0689 157.24 65.1469 156.952 65.1469C156.676 65.1469 156.442 65.0509 156.25 64.8589C156.07 64.6669 155.98 64.4149 155.98 64.1029C155.98 63.7909 156.106 63.5269 156.358 63.3109C156.61 63.0829 156.916 62.9689 157.276 62.9689C158.548 62.9689 159.184 63.9049 159.184 65.7769C159.184 66.7609 159.022 67.7329 158.698 68.6929C158.386 69.6409 157.954 70.4269 157.402 71.0509C156.862 71.6629 156.286 71.9689 155.674 71.9689C154.654 71.9689 153.844 71.2969 153.244 69.9529C152.656 68.6089 152.362 66.8269 152.362 64.6069V63.5989H151.084V63.3289H151.462C152.41 63.3289 153.256 63.2509 154 63.0949V64.1929C154 65.8849 154.162 67.4149 154.486 68.7829ZM164.978 62.9689C165.878 62.9689 166.628 63.1609 167.228 63.5449C167.84 63.9289 168.146 64.5049 168.146 65.2729C168.146 66.4609 167.468 67.1929 166.112 67.4689C165.428 67.6009 164.576 67.6669 163.556 67.6669H162.71V68.1889C162.71 69.1609 162.908 69.9529 163.304 70.5649C163.712 71.1649 164.3 71.4649 165.068 71.4649C165.848 71.4649 166.454 71.2369 166.886 70.7809C167.33 70.3249 167.642 69.7369 167.822 69.0169L168.146 69.0529C167.954 69.9289 167.564 70.6369 166.976 71.1769C166.4 71.7049 165.668 71.9689 164.78 71.9689C163.532 71.9689 162.584 71.5609 161.936 70.7449C161.288 69.9169 160.964 68.8249 160.964 67.4689C160.964 66.1129 161.312 65.0269 162.008 64.2109C162.704 63.3829 163.694 62.9689 164.978 62.9689ZM162.71 67.3429H163.34C164.312 67.3429 164.99 67.2469 165.374 67.0549C165.77 66.8629 166.04 66.6289 166.184 66.3529C166.328 66.0649 166.4 65.6629 166.4 65.1469C166.4 64.6309 166.268 64.1929 166.004 63.8329C165.752 63.4609 165.362 63.2749 164.834 63.2749C164.306 63.2749 163.874 63.4669 163.538 63.8509C163.214 64.2229 162.992 64.6609 162.872 65.1649C162.764 65.6689 162.71 66.2269 162.71 66.8389V67.3429ZM172.344 71.3389H173.532V71.6089H169.554V71.3389H170.742V59.4589H169.464V59.1889H169.842C170.778 59.1889 171.612 59.1109 172.344 58.9549V71.3389ZM181.902 70.7089C181.206 71.5489 180.234 71.9689 178.986 71.9689C177.738 71.9689 176.766 71.5489 176.07 70.7089C175.374 69.8689 175.026 68.7889 175.026 67.4689C175.026 66.1489 175.374 65.0689 176.07 64.2289C176.766 63.3889 177.738 62.9689 178.986 62.9689C180.234 62.9689 181.206 63.3889 181.902 64.2289C182.598 65.0689 182.946 66.1489 182.946 67.4689C182.946 68.7889 182.598 69.8689 181.902 70.7089ZM181.164 68.6749C181.188 68.3269 181.2 67.9249 181.2 67.4689C181.2 67.0129 181.188 66.6109 181.164 66.2629C181.14 65.9149 181.08 65.5429 180.984 65.1469C180.9 64.7509 180.78 64.4269 180.624 64.1749C180.48 63.9109 180.264 63.6949 179.976 63.5269C179.7 63.3589 179.37 63.2749 178.986 63.2749C178.602 63.2749 178.266 63.3589 177.978 63.5269C177.702 63.6949 177.486 63.9109 177.33 64.1749C177.186 64.4269 177.066 64.7509 176.97 65.1469C176.886 65.5429 176.832 65.9149 176.808 66.2629C176.784 66.6109 176.772 67.0129 176.772 67.4689C176.772 67.9249 176.784 68.3269 176.808 68.6749C176.832 69.0229 176.886 69.3949 176.97 69.7909C177.066 70.1869 177.186 70.5169 177.33 70.7809C177.486 71.0329 177.702 71.2429 177.978 71.4109C178.266 71.5789 178.602 71.6629 178.986 71.6629C179.37 71.6629 179.7 71.5789 179.976 71.4109C180.264 71.2429 180.48 71.0329 180.624 70.7809C180.78 70.5169 180.9 70.1869 180.984 69.7909C181.08 69.3949 181.14 69.0229 181.164 68.6749ZM187.318 75.2089H188.506V75.4789H184.528V75.2089H185.716V63.5989H184.438V63.3289H184.816C185.752 63.3289 186.586 63.2509 187.318 63.0949V64.9669H187.426C187.642 64.3549 187.96 63.8689 188.38 63.5089C188.812 63.1489 189.322 62.9689 189.91 62.9689C190.99 62.9689 191.788 63.3949 192.304 64.2469C192.832 65.0869 193.096 66.1549 193.096 67.4509C193.096 68.7469 192.826 69.8269 192.286 70.6909C191.746 71.5429 190.918 71.9689 189.802 71.9689C188.686 71.9689 187.894 71.4769 187.426 70.4929H187.318V75.2089ZM187.282 67.4509V68.0989C187.282 69.0349 187.462 69.8329 187.822 70.4929C188.182 71.1409 188.746 71.4649 189.514 71.4649C190.342 71.4649 190.864 70.9969 191.08 70.0609C191.26 69.3049 191.35 68.5489 191.35 67.7929C191.35 67.0369 191.326 66.4609 191.278 66.0649C191.242 65.6689 191.164 65.2609 191.044 64.8409C190.936 64.4089 190.744 64.0729 190.468 63.8329C190.204 63.5929 189.88 63.4729 189.496 63.4729C189.124 63.4729 188.788 63.6109 188.488 63.8869C188.2 64.1509 187.972 64.4929 187.804 64.9129C187.456 65.7649 187.282 66.6109 187.282 67.4509ZM199.079 62.9689C199.979 62.9689 200.729 63.1609 201.329 63.5449C201.941 63.9289 202.247 64.5049 202.247 65.2729C202.247 66.4609 201.569 67.1929 200.213 67.4689C199.529 67.6009 198.677 67.6669 197.657 67.6669H196.811V68.1889C196.811 69.1609 197.009 69.9529 197.405 70.5649C197.813 71.1649 198.401 71.4649 199.169 71.4649C199.949 71.4649 200.555 71.2369 200.987 70.7809C201.431 70.3249 201.743 69.7369 201.923 69.0169L202.247 69.0529C202.055 69.9289 201.665 70.6369 201.077 71.1769C200.501 71.7049 199.769 71.9689 198.881 71.9689C197.633 71.9689 196.685 71.5609 196.037 70.7449C195.389 69.9169 195.065 68.8249 195.065 67.4689C195.065 66.1129 195.413 65.0269 196.109 64.2109C196.805 63.3829 197.795 62.9689 199.079 62.9689ZM196.811 67.3429H197.441C198.413 67.3429 199.091 67.2469 199.475 67.0549C199.871 66.8629 200.141 66.6289 200.285 66.3529C200.429 66.0649 200.501 65.6629 200.501 65.1469C200.501 64.6309 200.369 64.1929 200.105 63.8329C199.853 63.4609 199.463 63.2749 198.935 63.2749C198.407 63.2749 197.975 63.4669 197.639 63.8509C197.315 64.2229 197.093 64.6609 196.973 65.1649C196.865 65.6689 196.811 66.2269 196.811 66.8389V67.3429ZM210.064 64.3369C210.064 64.0249 209.95 63.7669 209.722 63.5629C209.494 63.3589 209.188 63.2569 208.804 63.2569C208.42 63.2569 208.06 63.4129 207.724 63.7249C207.4 64.0249 207.148 64.4209 206.968 64.9129C206.644 65.8609 206.482 66.8869 206.482 67.9909V71.3389H207.796V71.6089H203.692V71.3389H204.88V63.5989H203.602V63.3289H203.98C204.94 63.3289 205.786 63.2509 206.518 63.0949V64.9669H206.626C207.13 63.6349 207.886 62.9689 208.894 62.9689C209.338 62.9689 209.698 63.1129 209.974 63.4009C210.262 63.6769 210.406 64.0249 210.406 64.4449C210.406 64.8529 210.286 65.1829 210.046 65.4349C209.818 65.6749 209.542 65.7949 209.218 65.7949C208.906 65.7949 208.648 65.7049 208.444 65.5249C208.252 65.3329 208.156 65.1049 208.156 64.8409C208.156 64.5649 208.234 64.3369 208.39 64.1569C208.546 63.9649 208.756 63.8689 209.02 63.8689C209.428 63.8689 209.668 64.0249 209.74 64.3369C209.764 64.4449 209.824 64.4989 209.92 64.4989C210.016 64.4989 210.064 64.4449 210.064 64.3369Z" fill="#EEEAEA"/>
<path d="M68.988 40.3609H67.382V40.0089H72.882V40.3609H71.276V47.3349C71.276 48.7869 71.0413 49.8869 70.572 50.6349C70.1027 51.3976 69.4427 51.7789 68.592 51.7789C67.9907 51.7789 67.4993 51.5736 67.118 51.1629C66.7367 50.7522 66.546 50.2902 66.546 49.7769C66.546 49.2782 66.7 48.8676 67.008 48.5449C67.3307 48.2222 67.69 48.0609 68.086 48.0609C68.4967 48.0609 68.8487 48.1929 69.142 48.4569C69.4353 48.7209 69.582 49.0582 69.582 49.4689C69.582 49.8796 69.472 50.1949 69.252 50.4149C69.032 50.6349 68.7607 50.7449 68.438 50.7449C67.9247 50.7449 67.58 50.5176 67.404 50.0629C67.36 49.9456 67.2867 49.8869 67.184 49.8869C67.0373 49.8869 66.9787 49.9602 67.008 50.1069C67.0667 50.4736 67.25 50.7742 67.558 51.0089C67.866 51.2582 68.262 51.3829 68.746 51.3829C69.23 51.3829 69.6113 51.1849 69.89 50.7889C70.1833 50.4076 70.33 49.9382 70.33 49.3809C70.33 48.8382 70.1393 48.2809 69.758 47.7089C69.3767 47.1516 69.1493 46.7336 69.076 46.4549C69.0027 46.4696 68.746 46.5429 68.306 46.6749C67.47 46.9242 66.744 47.0489 66.128 47.0489C64.2507 47.0489 62.7913 46.3082 61.75 44.8269C60.7087 43.3309 60.188 41.4609 60.188 39.2169C60.188 36.9729 60.8553 35.1909 62.19 33.8709C63.5247 32.5362 65.204 31.8689 67.228 31.8689C68.3867 31.8689 69.3547 32.1329 70.132 32.6609C70.924 33.1889 71.32 33.8416 71.32 34.6189C71.32 35.1176 71.1587 35.5282 70.836 35.8509C70.528 36.1736 70.1687 36.3349 69.758 36.3349C69.3473 36.3349 68.9953 36.2102 68.702 35.9609C68.4087 35.7116 68.262 35.3816 68.262 34.9709C68.262 34.5602 68.372 34.2376 68.592 34.0029C68.8267 33.7682 69.1053 33.6509 69.428 33.6509C69.9413 33.6509 70.286 33.8782 70.462 34.3329C70.506 34.4502 70.5793 34.5089 70.682 34.5089C70.8433 34.5089 70.9093 34.4356 70.88 34.2889C70.8067 33.7756 70.4473 33.3209 69.802 32.9249C69.1713 32.5142 68.3867 32.3089 67.448 32.3089C65.776 32.3089 64.5953 32.9176 63.906 34.1349C63.2167 35.3376 62.872 37.1489 62.872 39.5689C62.872 42.8982 63.4513 45.0249 64.61 45.9489C65.1233 46.3449 65.7833 46.5429 66.59 46.5429C67.3967 46.5429 68.196 46.3742 68.988 46.0369V40.3609ZM78.8469 36.0489C80.5923 36.0489 81.7436 36.4449 82.3009 37.2369C82.8729 38.0142 83.1589 39.3782 83.1589 41.3289V45.2229C83.1589 45.8242 83.2909 46.1249 83.5549 46.1249C84.0976 46.1249 84.4569 45.2816 84.6329 43.5949L85.0289 43.6389C84.8089 45.9122 84.0683 47.0489 82.8069 47.0489C82.4403 47.0489 82.1543 46.9169 81.9489 46.6529C81.7583 46.3889 81.6336 46.1029 81.5749 45.7949C81.5309 45.4722 81.5089 45.0762 81.5089 44.6069H81.3769C81.1863 45.3842 80.7976 45.9856 80.2109 46.4109C79.6243 46.8362 78.8689 47.0489 77.9449 47.0489C77.0356 47.0489 76.2363 46.8069 75.5469 46.3229C74.8576 45.8242 74.5129 45.1129 74.5129 44.1889C74.5129 43.4996 74.7109 42.9276 75.1069 42.4729C75.9283 41.5342 77.7909 41.0649 80.6949 41.0649C80.8563 41.0649 81.0249 41.0649 81.2009 41.0649V39.9869C81.2009 38.8282 81.0029 37.9556 80.6069 37.3689C80.2109 36.7822 79.5216 36.4889 78.5389 36.4889C77.5709 36.4889 76.8596 36.6869 76.4049 37.0829C75.9503 37.4789 75.7229 37.8896 75.7229 38.3149C75.7229 38.4469 75.7816 38.5129 75.8989 38.5129C76.0309 38.5129 76.1043 38.4469 76.1189 38.3149C76.2069 37.9336 76.5003 37.7429 76.9989 37.7429C77.3216 37.7429 77.5783 37.8602 77.7689 38.0949C77.9596 38.3149 78.0549 38.5936 78.0549 38.9309C78.0549 39.2536 77.9303 39.5322 77.6809 39.7669C77.4463 39.9869 77.1309 40.0969 76.7349 40.0969C76.3536 40.0969 76.0163 39.9502 75.7229 39.6569C75.4443 39.3489 75.3049 38.9749 75.3049 38.5349C75.3049 37.7136 75.6496 37.0976 76.3389 36.6869C77.0283 36.2616 77.8643 36.0489 78.8469 36.0489ZM81.2009 42.9349V41.4609C81.0543 41.4609 80.8196 41.4609 80.4969 41.4609C80.1889 41.4609 79.8149 41.4829 79.3749 41.5269C78.9496 41.5709 78.5096 41.6809 78.0549 41.8569C77.1163 42.1942 76.6469 42.9422 76.6469 44.1009C76.6469 44.8049 76.8156 45.3696 77.1529 45.7949C77.4903 46.2202 78.0329 46.4329 78.7809 46.4329C79.5289 46.4329 80.1156 46.0956 80.5409 45.4209C80.9809 44.7462 81.2009 43.9176 81.2009 42.9349ZM89.3495 38.4909H89.4815C89.7455 37.7429 90.1342 37.1489 90.6475 36.7089C91.1755 36.2689 91.7988 36.0489 92.5175 36.0489C93.8375 36.0489 94.8128 36.5696 95.4435 37.6109C96.0888 38.6376 96.4115 39.9429 96.4115 41.5269C96.4115 43.1109 96.0815 44.4309 95.4215 45.4869C94.7615 46.5282 93.7495 47.0489 92.3855 47.0489C91.0215 47.0489 90.0535 46.4476 89.4815 45.2449H89.3495V46.6089H85.9395V46.2789H87.3915V31.7589H85.8295V31.4289H86.2915C87.4355 31.4289 88.4548 31.3336 89.3495 31.1429V38.4909ZM89.3055 41.5269V42.3189C89.3055 43.4629 89.5255 44.4382 89.9655 45.2449C90.4055 46.0369 91.0948 46.4329 92.0335 46.4329C93.0455 46.4329 93.6835 45.8609 93.9475 44.7169C94.1675 43.7929 94.2775 42.8689 94.2775 41.9449C94.2775 41.0209 94.2482 40.3169 94.1895 39.8329C94.1455 39.3489 94.0502 38.8502 93.9035 38.3369C93.7715 37.8089 93.5368 37.3982 93.1995 37.1049C92.8768 36.8116 92.4808 36.6649 92.0115 36.6649C91.5568 36.6649 91.1462 36.8336 90.7795 37.1709C90.4275 37.4936 90.1488 37.9116 89.9435 38.4249C89.5182 39.4662 89.3055 40.5002 89.3055 41.5269ZM106.362 37.7209C106.362 37.3396 106.223 37.0242 105.944 36.7749C105.666 36.5256 105.292 36.4009 104.822 36.4009C104.353 36.4009 103.913 36.5916 103.502 36.9729C103.106 37.3396 102.798 37.8236 102.578 38.4249C102.182 39.5836 101.984 40.8376 101.984 42.1869V46.2789H103.59V46.6089H98.5744V46.2789H100.026V36.8189H98.4644V36.4889H98.9264C100.1 36.4889 101.134 36.3936 102.028 36.2029V38.4909H102.16C102.776 36.8629 103.7 36.0489 104.932 36.0489C105.475 36.0489 105.915 36.2249 106.252 36.5769C106.604 36.9142 106.78 37.3396 106.78 37.8529C106.78 38.3516 106.634 38.7549 106.34 39.0629C106.062 39.3562 105.724 39.5029 105.328 39.5029C104.947 39.5029 104.632 39.3929 104.382 39.1729C104.148 38.9382 104.03 38.6596 104.03 38.3369C104.03 37.9996 104.126 37.7209 104.316 37.5009C104.507 37.2662 104.764 37.1489 105.086 37.1489C105.585 37.1489 105.878 37.3396 105.966 37.7209C105.996 37.8529 106.069 37.9189 106.186 37.9189C106.304 37.9189 106.362 37.8529 106.362 37.7209ZM110.965 46.2789H112.417V46.6089H107.555V46.2789H109.007V36.8189H107.445V36.4889H107.907C109.051 36.4889 110.07 36.3936 110.965 36.2029V46.2789ZM108.985 34.0909C108.75 33.8416 108.633 33.5336 108.633 33.1669C108.633 32.8002 108.75 32.4922 108.985 32.2429C109.234 31.9936 109.542 31.8689 109.909 31.8689C110.276 31.8689 110.584 31.9936 110.833 32.2429C111.082 32.4922 111.207 32.8002 111.207 33.1669C111.207 33.5336 111.082 33.8416 110.833 34.0909C110.584 34.3256 110.276 34.4429 109.909 34.4429C109.542 34.4429 109.234 34.3256 108.985 34.0909ZM119.213 36.0489C120.313 36.0489 121.229 36.2836 121.963 36.7529C122.711 37.2222 123.085 37.9262 123.085 38.8649C123.085 40.3169 122.256 41.2116 120.599 41.5489C119.763 41.7102 118.721 41.7909 117.475 41.7909H116.441V42.4289C116.441 43.6169 116.683 44.5849 117.167 45.3329C117.665 46.0662 118.384 46.4329 119.323 46.4329C120.276 46.4329 121.017 46.1542 121.545 45.5969C122.087 45.0396 122.469 44.3209 122.689 43.4409L123.085 43.4849C122.85 44.5556 122.373 45.4209 121.655 46.0809C120.951 46.7262 120.056 47.0489 118.971 47.0489C117.445 47.0489 116.287 46.5502 115.495 45.5529C114.703 44.5409 114.307 43.2062 114.307 41.5489C114.307 39.8916 114.732 38.5642 115.583 37.5669C116.433 36.5549 117.643 36.0489 119.213 36.0489ZM116.441 41.3949H117.211C118.399 41.3949 119.227 41.2776 119.697 41.0429C120.181 40.8082 120.511 40.5222 120.687 40.1849C120.863 39.8329 120.951 39.3416 120.951 38.7109C120.951 38.0802 120.789 37.5449 120.467 37.1049C120.159 36.6502 119.682 36.4229 119.037 36.4229C118.391 36.4229 117.863 36.6576 117.453 37.1269C117.057 37.5816 116.785 38.1169 116.639 38.7329C116.507 39.3489 116.441 40.0309 116.441 40.7789V41.3949ZM128.216 46.2789H129.668V46.6089H124.806V46.2789H126.258V31.7589H124.696V31.4289H125.158C126.302 31.4289 127.321 31.3336 128.216 31.1429V46.2789ZM138.55 43.3529C138.389 43.7929 138.308 44.2256 138.308 44.6509C138.308 45.0616 138.381 45.3769 138.528 45.5969C138.689 45.8169 138.939 45.9709 139.276 46.0589C139.789 46.1909 140.471 46.2569 141.322 46.2569H141.696V46.6089H135.184V46.2569C135.961 46.2569 136.548 46.0442 136.944 45.6189C137.355 45.1789 137.714 44.4969 138.022 43.5729L141.608 33.2109C141.711 32.8882 141.806 32.6462 141.894 32.4849C142.099 32.0742 142.437 31.8689 142.906 31.8689H142.972L147.416 46.2569H148.978V46.6089H143.346V46.2569H144.974L141.542 35.0369H141.41L138.55 43.3529ZM138.022 38.7769C138.653 38.7769 139.335 38.9749 140.068 39.3709C140.816 39.7669 141.469 40.2876 142.026 40.9329C143.141 42.1796 143.984 43.4922 144.556 44.8709L144.908 44.7829C144.131 42.8029 143.097 41.2409 141.806 40.0969C140.53 38.9529 139.203 38.3809 137.824 38.3809C137.061 38.3809 136.431 38.5936 135.932 39.0189C135.448 39.4442 135.206 39.9282 135.206 40.4709C135.206 40.9989 135.36 41.4242 135.668 41.7469C135.991 42.0696 136.35 42.2309 136.746 42.2309C137.157 42.2309 137.509 42.0989 137.802 41.8349C138.095 41.5709 138.242 41.2336 138.242 40.8229C138.242 40.4122 138.132 40.0969 137.912 39.8769C137.692 39.6569 137.421 39.5469 137.098 39.5469C136.585 39.5469 136.24 39.7742 136.064 40.2289C136.02 40.3462 135.947 40.4049 135.844 40.4049C135.697 40.4049 135.639 40.3316 135.668 40.1849C135.727 39.7449 135.976 39.4002 136.416 39.1509C136.856 38.9016 137.391 38.7769 138.022 38.7769ZM157.86 37.7209C157.86 37.3396 157.721 37.0242 157.442 36.7749C157.164 36.5256 156.79 36.4009 156.32 36.4009C155.851 36.4009 155.411 36.5916 155 36.9729C154.604 37.3396 154.296 37.8236 154.076 38.4249C153.68 39.5836 153.482 40.8376 153.482 42.1869V46.2789H155.088V46.6089H150.072V46.2789H151.524V36.8189H149.962V36.4889H150.424C151.598 36.4889 152.632 36.3936 153.526 36.2029V38.4909H153.658C154.274 36.8629 155.198 36.0489 156.43 36.0489C156.973 36.0489 157.413 36.2249 157.75 36.5769C158.102 36.9142 158.278 37.3396 158.278 37.8529C158.278 38.3516 158.132 38.7549 157.838 39.0629C157.56 39.3562 157.222 39.5029 156.826 39.5029C156.445 39.5029 156.13 39.3929 155.88 39.1729C155.646 38.9382 155.528 38.6596 155.528 38.3369C155.528 37.9996 155.624 37.7209 155.814 37.5009C156.005 37.2662 156.262 37.1489 156.584 37.1489C157.083 37.1489 157.376 37.3396 157.464 37.7209C157.494 37.8529 157.567 37.9189 157.684 37.9189C157.802 37.9189 157.86 37.8529 157.86 37.7209ZM163.431 36.0489C165.176 36.0489 166.328 36.4449 166.885 37.2369C167.457 38.0142 167.743 39.3782 167.743 41.3289V45.2229C167.743 45.8242 167.875 46.1249 168.139 46.1249C168.682 46.1249 169.041 45.2816 169.217 43.5949L169.613 43.6389C169.393 45.9122 168.652 47.0489 167.391 47.0489C167.024 47.0489 166.738 46.9169 166.533 46.6529C166.342 46.3889 166.218 46.1029 166.159 45.7949C166.115 45.4722 166.093 45.0762 166.093 44.6069H165.961C165.77 45.3842 165.382 45.9856 164.795 46.4109C164.208 46.8362 163.453 47.0489 162.529 47.0489C161.62 47.0489 160.82 46.8069 160.131 46.3229C159.442 45.8242 159.097 45.1129 159.097 44.1889C159.097 43.4996 159.295 42.9276 159.691 42.4729C160.512 41.5342 162.375 41.0649 165.279 41.0649C165.44 41.0649 165.609 41.0649 165.785 41.0649V39.9869C165.785 38.8282 165.587 37.9556 165.191 37.3689C164.795 36.7822 164.106 36.4889 163.123 36.4889C162.155 36.4889 161.444 36.6869 160.989 37.0829C160.534 37.4789 160.307 37.8896 160.307 38.3149C160.307 38.4469 160.366 38.5129 160.483 38.5129C160.615 38.5129 160.688 38.4469 160.703 38.3149C160.791 37.9336 161.084 37.7429 161.583 37.7429C161.906 37.7429 162.162 37.8602 162.353 38.0949C162.544 38.3149 162.639 38.5936 162.639 38.9309C162.639 39.2536 162.514 39.5322 162.265 39.7669C162.03 39.9869 161.715 40.0969 161.319 40.0969C160.938 40.0969 160.6 39.9502 160.307 39.6569C160.028 39.3489 159.889 38.9749 159.889 38.5349C159.889 37.7136 160.234 37.0976 160.923 36.6869C161.612 36.2616 162.448 36.0489 163.431 36.0489ZM165.785 42.9349V41.4609C165.638 41.4609 165.404 41.4609 165.081 41.4609C164.773 41.4609 164.399 41.4829 163.959 41.5269C163.534 41.5709 163.094 41.6809 162.639 41.8569C161.7 42.1942 161.231 42.9422 161.231 44.1009C161.231 44.8049 161.4 45.3696 161.737 45.7949C162.074 46.2202 162.617 46.4329 163.365 46.4329C164.113 46.4329 164.7 46.0956 165.125 45.4209C165.565 44.7462 165.785 43.9176 165.785 42.9349ZM178.62 36.8189H177.058V36.4889H177.52C178.664 36.4889 179.683 36.3936 180.578 36.2029V46.2789H182.03V46.6089H178.576V44.6949H178.444C178.194 45.3989 177.769 45.9709 177.168 46.4109C176.581 46.8362 175.921 47.0489 175.188 47.0489C173.941 47.0489 173.098 46.6749 172.658 45.9269C172.232 45.1789 172.02 44.0496 172.02 42.5389V36.8189H170.458V36.4889H170.92C172.064 36.4889 173.083 36.3936 173.978 36.2029V42.2309C173.978 43.6096 174.029 44.4749 174.132 44.8269C174.234 45.1789 174.344 45.4796 174.462 45.7289C174.696 46.1982 175.092 46.4329 175.65 46.4329C176.222 46.4329 176.713 46.2642 177.124 45.9269C177.549 45.5896 177.864 45.1276 178.07 44.5409C178.436 43.4996 178.62 42.2529 178.62 40.8009V36.8189ZM185.233 34.0909C184.999 33.8416 184.881 33.5336 184.881 33.1669C184.881 32.8002 184.999 32.4922 185.233 32.2429C185.483 31.9936 185.791 31.8689 186.157 31.8689C186.524 31.8689 186.832 31.9936 187.081 32.2429C187.331 32.4922 187.455 32.8002 187.455 33.1669C187.455 33.5336 187.331 33.8416 187.081 34.0909C186.832 34.3256 186.524 34.4429 186.157 34.4429C185.791 34.4429 185.483 34.3256 185.233 34.0909ZM183.561 49.4909C183.371 49.4909 183.275 49.6816 183.275 50.0629C183.275 50.4442 183.422 50.7596 183.715 51.0089C184.023 51.2582 184.397 51.3829 184.837 51.3829C185.952 51.3829 186.509 50.6862 186.509 49.2929C186.509 48.7796 186.311 48.1856 185.915 47.5109C185.534 46.8362 185.343 46.2422 185.343 45.7289V36.8189H183.781V36.4889H184.243C185.387 36.4889 186.407 36.3936 187.301 36.2029V47.7749C187.301 50.4442 186.48 51.7789 184.837 51.7789C184.28 51.7789 183.811 51.6102 183.429 51.2729C183.063 50.9356 182.879 50.5249 182.879 50.0409C182.879 49.5716 183.026 49.1682 183.319 48.8309C183.613 48.4936 183.957 48.3249 184.353 48.3249C184.749 48.3249 185.065 48.4349 185.299 48.6549C185.549 48.8896 185.673 49.1682 185.673 49.4909C185.673 49.8282 185.578 50.1069 185.387 50.3269C185.197 50.5616 184.947 50.6789 184.639 50.6789C184.346 50.6789 184.119 50.6056 183.957 50.4589C183.796 50.3122 183.715 50.1289 183.715 49.9089L183.737 49.6669C183.737 49.5496 183.679 49.4909 183.561 49.4909ZM198.744 45.5089C197.893 46.5356 196.705 47.0489 195.18 47.0489C193.654 47.0489 192.466 46.5356 191.616 45.5089C190.765 44.4822 190.34 43.1622 190.34 41.5489C190.34 39.9356 190.765 38.6156 191.616 37.5889C192.466 36.5622 193.654 36.0489 195.18 36.0489C196.705 36.0489 197.893 36.5622 198.744 37.5889C199.594 38.6156 200.02 39.9356 200.02 41.5489C200.02 43.1622 199.594 44.4822 198.744 45.5089ZM197.842 43.0229C197.871 42.5976 197.886 42.1062 197.886 41.5489C197.886 40.9916 197.871 40.5002 197.842 40.0749C197.812 39.6496 197.739 39.1949 197.622 38.7109C197.519 38.2269 197.372 37.8309 197.182 37.5229C197.006 37.2002 196.742 36.9362 196.39 36.7309C196.052 36.5256 195.649 36.4229 195.18 36.4229C194.71 36.4229 194.3 36.5256 193.948 36.7309C193.61 36.9362 193.346 37.2002 193.156 37.5229C192.98 37.8309 192.833 38.2269 192.716 38.7109C192.613 39.1949 192.547 39.6496 192.518 40.0749C192.488 40.5002 192.474 40.9916 192.474 41.5489C192.474 42.1062 192.488 42.5976 192.518 43.0229C192.547 43.4482 192.613 43.9029 192.716 44.3869C192.833 44.8709 192.98 45.2742 193.156 45.5969C193.346 45.9049 193.61 46.1616 193.948 46.3669C194.3 46.5722 194.71 46.6749 195.18 46.6749C195.649 46.6749 196.052 46.5722 196.39 46.3669C196.742 46.1616 197.006 45.9049 197.182 45.5969C197.372 45.2742 197.519 44.8709 197.622 44.3869C197.739 43.9029 197.812 43.4482 197.842 43.0229Z" fill="#EEEAEA"/>
</svg>
