<svg width="80" height="79" viewBox="0 0 80 79" fill="none" xmlns="http://www.w3.org/2000/svg">
<path d="M26.7581 63.0967C26.7581 63.4193 26.3871 63.6774 25.9194 63.6774C25.3871 63.7258 25.0161 63.4677 25.0161 63.0967C25.0161 62.7742 25.3871 62.5161 25.8548 62.5161C26.3387 62.4677 26.7581 62.7258 26.7581 63.0967ZM21.7419 62.3709C21.629 62.6935 21.9516 63.0645 22.4355 63.1612C22.8548 63.3225 23.3387 63.1612 23.4355 62.8387C23.5323 62.5161 23.2258 62.1451 22.7419 62C22.3226 61.8871 21.8548 62.0483 21.7419 62.3709ZM28.871 62.0967C28.4032 62.2096 28.0806 62.5161 28.129 62.8871C28.1774 63.2096 28.5968 63.4193 29.0806 63.3064C29.5484 63.1935 29.871 62.8871 29.8226 62.5645C29.7742 62.258 29.3387 62.0483 28.871 62.0967ZM39.4839 0.290283C17.1129 0.290283 0 17.2742 0 39.6451C0 57.5322 11.2581 72.8387 27.3387 78.2258C29.4032 78.5967 30.129 77.3225 30.129 76.2742C30.129 75.2742 30.0806 69.758 30.0806 66.3709C30.0806 66.3709 18.7903 68.7903 16.4194 61.5645C16.4194 61.5645 14.5806 56.8709 11.9355 55.6612C11.9355 55.6612 8.24193 53.129 12.1935 53.1774C12.1935 53.1774 16.2097 53.5 18.4194 57.3387C21.9516 63.5645 27.871 61.7742 30.1774 60.7096C30.5484 58.129 31.5968 56.3387 32.7581 55.2742C23.7419 54.2742 14.6452 52.9677 14.6452 37.4516C14.6452 33.0161 15.871 30.7903 18.4516 27.9516C18.0323 26.9032 16.6613 22.5806 18.871 17C22.2419 15.9516 30 21.3548 30 21.3548C33.2258 20.4516 36.6935 19.9838 40.129 19.9838C43.5645 19.9838 47.0323 20.4516 50.2581 21.3548C50.2581 21.3548 58.0161 15.9354 61.3871 17C63.5968 22.5967 62.2258 26.9032 61.8064 27.9516C64.3871 30.8064 65.9677 33.0322 65.9677 37.4516C65.9677 53.0161 56.4677 54.258 47.4516 55.2742C48.9355 56.5483 50.1936 58.9677 50.1936 62.758C50.1936 68.1935 50.1452 74.9193 50.1452 76.2419C50.1452 77.2903 50.8871 78.5645 52.9355 78.1935C69.0645 72.8387 80 57.5322 80 39.6451C80 17.2742 61.8548 0.290283 39.4839 0.290283ZM15.6774 55.9193C15.4677 56.0806 15.5161 56.4516 15.7903 56.758C16.0484 57.0161 16.4194 57.129 16.629 56.9193C16.8387 56.758 16.7903 56.3871 16.5161 56.0806C16.2581 55.8225 15.8871 55.7096 15.6774 55.9193ZM13.9355 54.6129C13.8226 54.8225 13.9839 55.0806 14.3065 55.2419C14.5645 55.4032 14.8871 55.3548 15 55.129C15.1129 54.9193 14.9516 54.6613 14.629 54.5C14.3065 54.4032 14.0484 54.4516 13.9355 54.6129ZM19.1613 60.3548C18.9032 60.5645 19 61.0483 19.371 61.3548C19.7419 61.7258 20.2097 61.7742 20.4194 61.5161C20.629 61.3064 20.5323 60.8225 20.2097 60.5161C19.8548 60.1451 19.371 60.0967 19.1613 60.3548ZM17.3226 57.9838C17.0645 58.1451 17.0645 58.5645 17.3226 58.9354C17.5806 59.3064 18.0161 59.4677 18.2258 59.3064C18.4839 59.0967 18.4839 58.6774 18.2258 58.3064C18 57.9354 17.5806 57.7742 17.3226 57.9838Z" fill="white"/>
</svg>
