<svg width="81" height="81" viewBox="0 0 81 81" fill="none" xmlns="http://www.w3.org/2000/svg">
<path d="M40.0312 19.4955C28.6741 19.4955 19.5134 28.6562 19.5134 40.0134C19.5134 51.3705 28.6741 60.5312 40.0312 60.5312C51.3884 60.5312 60.5491 51.3705 60.5491 40.0134C60.5491 28.6562 51.3884 19.4955 40.0312 19.4955ZM40.0312 53.3527C32.692 53.3527 26.692 47.3705 26.692 40.0134C26.692 32.6562 32.6741 26.6741 40.0312 26.6741C47.3884 26.6741 53.3705 32.6562 53.3705 40.0134C53.3705 47.3705 47.3705 53.3527 40.0312 53.3527ZM66.1741 18.6562C66.1741 21.317 64.0312 23.442 61.3884 23.442C58.7277 23.442 56.6027 21.2991 56.6027 18.6562C56.6027 16.0134 58.7455 13.8705 61.3884 13.8705C64.0312 13.8705 66.1741 16.0134 66.1741 18.6562ZM79.7634 23.5134C79.4598 17.1027 77.9955 11.4241 73.2991 6.74553C68.6205 2.06696 62.942 0.602678 56.5312 0.28125C49.9241 -0.09375 30.1205 -0.09375 23.5134 0.28125C17.1205 0.584821 11.442 2.04911 6.74553 6.72768C2.04911 11.4062 0.602678 17.0848 0.28125 23.4955C-0.09375 30.1027 -0.09375 49.9062 0.28125 56.5134C0.584821 62.9241 2.04911 68.6027 6.74553 73.2812C11.442 77.9598 17.1027 79.4241 23.5134 79.7455C30.1205 80.1205 49.9241 80.1205 56.5312 79.7455C62.942 79.4419 68.6205 77.9777 73.2991 73.2812C77.9777 68.6027 79.4419 62.9241 79.7634 56.5134C80.1384 49.9062 80.1384 30.1205 79.7634 23.5134ZM71.2277 63.6027C69.8348 67.1027 67.1384 69.7991 63.6205 71.2098C58.3527 73.2991 45.8527 72.817 40.0312 72.817C34.2098 72.817 21.692 73.2812 16.442 71.2098C12.942 69.817 10.2455 67.1205 8.83482 63.6027C6.74553 58.3348 7.22768 45.8348 7.22768 40.0134C7.22768 34.192 6.76339 21.6741 8.83482 16.4241C10.2277 12.9241 12.9241 10.2277 16.442 8.81696C21.7098 6.72768 34.2098 7.20982 40.0312 7.20982C45.8527 7.20982 58.3705 6.74553 63.6205 8.81696C67.1205 10.2098 69.8169 12.9062 71.2277 16.4241C73.3169 21.692 72.8348 34.192 72.8348 40.0134C72.8348 45.8348 73.3169 58.3527 71.2277 63.6027Z" fill="white"/>
</svg>
