<svg width="80" height="81" viewBox="0 0 80 81" fill="none" xmlns="http://www.w3.org/2000/svg">
<path d="M74.2857 0.714233H5.69643C2.55357 0.714233 0 3.30352 0 6.48209V74.9464C0 78.1249 2.55357 80.7142 5.69643 80.7142H74.2857C77.4286 80.7142 80 78.1249 80 74.9464V6.48209C80 3.30352 77.4286 0.714233 74.2857 0.714233ZM24.1786 69.2857H12.3214V31.1071H24.1964V69.2857H24.1786ZM18.25 25.8928C14.4464 25.8928 11.375 22.8035 11.375 19.0178C11.375 15.2321 14.4464 12.1428 18.25 12.1428C22.0357 12.1428 25.125 15.2321 25.125 19.0178C25.125 22.8214 22.0536 25.8928 18.25 25.8928ZM68.625 69.2857H56.7679V50.7142C56.7679 46.2857 56.6786 40.5892 50.6071 40.5892C44.4286 40.5892 43.4821 45.4107 43.4821 50.3928V69.2857H31.625V31.1071H43V36.3214H43.1607C44.75 33.3214 48.625 30.1607 54.3929 30.1607C66.3929 30.1607 68.625 38.0714 68.625 48.3571V69.2857Z" fill="white"/>
</svg>
