<svg width="80" height="66" viewBox="0 0 80 66" fill="none" xmlns="http://www.w3.org/2000/svg">
<path d="M71.7766 16.7056C71.8273 17.4163 71.8273 18.127 71.8273 18.8377C71.8273 40.5127 55.33 65.4874 25.1777 65.4874C15.8883 65.4874 7.25891 62.7969 0 58.127C1.31984 58.2792 2.58875 58.33 3.95937 58.33C11.6242 58.33 18.6802 55.7413 24.3147 51.325C17.1066 51.1727 11.0659 46.4519 8.98469 39.9544C10 40.1066 11.0152 40.2081 12.0813 40.2081C13.5533 40.2081 15.0255 40.005 16.3959 39.6498C8.88328 38.1269 3.24859 31.528 3.24859 23.5584V23.3555C5.43125 24.5738 7.96953 25.3352 10.6597 25.4366C6.24344 22.4923 3.35016 17.467 3.35016 11.7817C3.35016 8.7361 4.16219 5.94422 5.58359 3.50766C13.6547 13.4569 25.7867 19.9542 39.3906 20.665C39.1369 19.4467 38.9845 18.1778 38.9845 16.9088C38.9845 7.87313 46.2942 0.512817 55.3805 0.512817C60.1012 0.512817 64.3652 2.49251 67.3602 5.69047C71.0656 4.97985 74.6189 3.60922 77.7663 1.7311C76.5478 5.53829 73.9591 8.73625 70.5581 10.7666C73.8577 10.4114 77.0556 9.4975 79.9997 8.2286C77.7666 11.4772 74.9745 14.3705 71.7766 16.7056Z" fill="white"/>
</svg>
