<svg width="79" height="81" viewBox="0 0 79 81" fill="none" xmlns="http://www.w3.org/2000/svg">
<path d="M68.0179 12.3392C60.5357 4.83923 50.5714 0.714233 39.9821 0.714233C18.125 0.714233 0.339286 18.4999 0.339286 40.3571C0.339286 47.3392 2.16071 54.1607 5.625 60.1785L0 80.7142L21.0179 75.1964C26.8036 78.3571 33.3214 80.0178 39.9643 80.0178H39.9821C61.8214 80.0178 80 62.2321 80 40.375C80 29.7857 75.5 19.8392 68.0179 12.3392ZM39.9821 73.3392C34.0536 73.3392 28.25 71.7499 23.1964 68.7499L22 68.0357L9.53572 71.3035L12.8571 59.1428L12.0714 57.8928C8.76786 52.6428 7.03571 46.5892 7.03571 40.3571C7.03571 22.1964 21.8214 7.41066 40 7.41066C48.8036 7.41066 57.0714 10.8392 63.2857 17.0714C69.5 23.3035 73.3214 31.5714 73.3036 40.375C73.3036 58.5535 58.1429 73.3392 39.9821 73.3392ZM58.0536 48.6607C57.0714 48.1607 52.1964 45.7678 51.2857 45.4464C50.375 45.1071 49.7143 44.9464 49.0536 45.9464C48.3929 46.9464 46.5 49.1607 45.9107 49.8392C45.3393 50.5 44.75 50.5892 43.7679 50.0892C37.9464 47.1785 34.125 44.8928 30.2857 38.3035C29.2679 36.5535 31.3036 36.6785 33.1964 32.8928C33.5179 32.2321 33.3571 31.6607 33.1071 31.1607C32.8571 30.6607 30.875 25.7857 30.0536 23.8035C29.25 21.8749 28.4286 22.1428 27.8214 22.1071C27.25 22.0714 26.5893 22.0714 25.9286 22.0714C25.2679 22.0714 24.1964 22.3214 23.2857 23.3035C22.375 24.3035 19.8214 26.6964 19.8214 31.5714C19.8214 36.4464 23.375 41.1607 23.8571 41.8214C24.3571 42.4821 30.8393 52.4821 40.7857 56.7857C47.0714 59.5 49.5357 59.7321 52.6786 59.2678C54.5893 58.9821 58.5357 56.875 59.3571 54.5535C60.1786 52.2321 60.1786 50.25 59.9286 49.8392C59.6964 49.3928 59.0357 49.1428 58.0536 48.6607Z" fill="white"/>
</svg>
