<svg width="65" height="75" viewBox="0 0 65 75" fill="none" xmlns="http://www.w3.org/2000/svg">
<path d="M64.2262 1.03649C63.6482 0.376621 62.8237 0 61.9597 0H3.04231C2.1783 0 1.35383 0.376621 0.775794 1.03649C0.197755 1.69635 -0.0760532 2.57721 0.0182584 3.45496L6.71742 65.1555C6.85129 66.4099 7.71834 67.4588 8.90484 67.8043L31.6613 74.4559C31.9351 74.5368 32.2181 74.5773 32.498 74.5773C32.7778 74.5773 33.0608 74.5368 33.3346 74.4559L56.0911 67.8043C57.2776 67.4588 58.1416 66.4099 58.2785 65.1555L64.9807 3.45496C65.078 2.57721 64.8042 1.69635 64.2262 1.03649ZM49.2824 31.3561L47.9255 54.0312L32.5984 59.1576L17.2712 54.0312L16.6901 43.187H24.448L24.6427 48.1173L32.5984 50.8781L40.554 48.1173L41.1351 39.2464H24.0616L23.6753 31.3592H41.5245L42.1056 23.4719H15.3302L14.7491 15.5815H50.2529L49.2824 31.3561Z" fill="white"/>
</svg>
