<svg width="60" height="78" viewBox="0 0 60 78" fill="none" xmlns="http://www.w3.org/2000/svg">
<path d="M1.19612 0C0.442894 0.157129 -0.0763738 0.962415 0.00922014 1.83317L5.16766 67.932C5.23613 68.6064 5.65269 69.1629 6.21761 69.3462L29.5904 77.0455C29.8585 77.1372 30.1439 77.1372 30.412 77.0455L53.7848 69.3462C54.3497 69.1629 54.7663 68.6064 54.8347 67.932L59.9932 1.83317C60.0331 1.36178 59.8962 0.896943 59.6166 0.543404C59.337 0.196412 58.9432 0 58.5324 0H1.47002C1.42437 0 1.37872 0 1.33307 0C1.28742 0 1.24177 0 1.19612 0ZM3.06776 3.35208H56.9346L52.0501 66.4655L30.0012 73.6411L7.9523 66.4655L3.06776 3.35208ZM11.7869 13.5131C11.0337 13.6702 10.5144 14.4755 10.6 15.3463L12.5629 40.1202C12.6086 40.9844 13.2249 41.6653 13.9781 41.6915H37.3052L36.6661 49.3908L30.0469 51.0145L23.3363 49.3908L23.1081 46.6673C23.0624 45.7834 22.4176 45.096 21.6473 45.096H14.5259C14.115 45.096 13.7213 45.2924 13.4417 45.6394C13.1621 45.9929 13.0251 46.4578 13.0651 46.9292L13.8868 57.1949C13.9324 57.8693 14.3262 58.4519 14.8911 58.6614L29.4078 63.7419L29.5904 63.7943C29.8585 63.886 30.1439 63.886 30.412 63.7943L45.1113 58.6614C45.6933 58.4716 46.1099 57.8889 46.1613 57.1949L48.0786 32.0019C48.1185 31.5371 47.9873 31.0788 47.7191 30.7318C47.4509 30.3848 47.0686 30.1818 46.6634 30.1687H21.7842L21.419 24.9835H47.3025C48.0614 24.99 48.6948 24.3288 48.7633 23.4646L49.4024 15.3463C49.4424 14.8749 49.3054 14.41 49.0258 14.0565C48.7462 13.7095 48.3525 13.5131 47.9416 13.5131H12.0608C11.9695 13.5 11.8782 13.5 11.7869 13.5131ZM13.6585 16.8652H46.3439L45.9787 21.6314H19.8213C19.4104 21.6314 19.0167 21.8278 18.7371 22.1748C18.4575 22.5283 18.3205 22.9932 18.3605 23.4646L19.0452 32.0019C19.1137 32.8465 19.7243 33.5012 20.4604 33.5208H45.0657L43.331 55.7807L30.0012 60.3899L16.6714 55.7807L16.1236 48.4481H20.3234L20.506 50.9097C20.5517 51.6496 21.0139 52.265 21.6473 52.4287L29.773 54.3666C29.967 54.4124 30.1724 54.4124 30.3664 54.3666L38.3551 52.4287C38.9885 52.265 39.4507 51.6496 39.4964 50.9097L40.3637 40.1202C40.3865 39.6554 40.2439 39.2037 39.97 38.8698C39.6904 38.5293 39.3081 38.3394 38.9029 38.3394H15.3019L13.6585 16.8652Z" fill="white"/>
</svg>
