<svg width="60" height="78" viewBox="0 0 60 78" fill="none" xmlns="http://www.w3.org/2000/svg">
<path d="M59.6173 0.544731C59.3397 0.197779 58.9497 0 58.5392 0H1.46085C1.05035 0 0.660301 0.197779 0.382739 0.544731C0.105178 0.891682 -0.0306811 1.35764 0.00584016 1.82527L5.14803 67.9086C5.20209 68.5992 5.62135 69.1808 6.20277 69.3719L29.591 77.0367C29.721 77.0786 29.8569 77.1003 29.9913 77.1003C30.1257 77.1003 30.2615 77.0786 30.3915 77.0367L53.8002 69.3719C54.3816 69.1808 54.8009 68.5992 54.8549 67.9086L59.9942 1.82527C60.0307 1.35764 59.8934 0.891682 59.6173 0.544731ZM11.009 45.2613L21.2349 48.5162V15.0848H27.0783V58.6633L11.009 53.5495V45.2613ZM49.07 33.5219L47.5302 54.054L32.9217 58.6633V50.9516L42.7825 47.8424L43.1477 41.5571L32.9217 43.5785V15.0848H50.4519L49.9479 21.7892H38.7651V35.198L49.07 33.5219Z" fill="white"/>
</svg>
