<svg width="81" height="59" viewBox="0 0 81 59" fill="none" xmlns="http://www.w3.org/2000/svg">
<path d="M39.665 58.8947C39.4017 58.8947 39.1384 58.8045 38.9001 58.6543L36.4926 56.9414C36.1289 56.701 36.3045 56.6109 36.4299 56.5658C36.9064 56.3705 37.0067 56.3254 37.5208 55.9648C37.5709 55.9348 37.6462 55.9498 37.6963 55.9799L39.5522 57.302C39.6148 57.3471 39.7152 57.3471 39.7779 57.302L47.0256 52.2838C47.0883 52.2387 47.1384 52.1486 47.1384 52.0434V42.0219C47.1384 41.9167 47.1008 41.8266 47.0256 41.7815L39.7779 36.7783C39.7152 36.7332 39.6274 36.7332 39.5522 36.7783L32.3044 41.7815C32.2292 41.8266 32.1916 41.9318 32.1916 42.0219V52.0434C32.1916 52.1335 32.2417 52.2237 32.3044 52.2688L34.2856 53.636C35.364 54.2821 36.0286 53.5158 36.0286 52.7646V42.8633C36.0286 42.7281 36.1164 42.6079 36.2418 42.6079H37.1571C37.27 42.6079 37.3703 42.7131 37.3703 42.8633V52.7646C37.3703 54.4924 36.5929 55.469 35.2261 55.469C34.8123 55.469 34.4737 55.469 33.5584 54.9281L31.6524 53.621C31.1884 53.2904 30.8875 52.6895 30.8875 52.0434V42.0219C30.8875 41.3759 31.1759 40.7598 31.6524 40.4443L38.9001 35.4261C39.3641 35.1105 39.9659 35.1105 40.4174 35.4261L47.6651 40.4443C48.129 40.7749 48.43 41.3759 48.43 42.0219V52.0434C48.43 52.6895 48.1416 53.3055 47.6651 53.621L40.4174 58.6392C40.2042 58.8045 39.9409 58.8947 39.665 58.8947ZM45.5209 49.0084C45.5209 47.1303 44.4676 46.6345 42.2356 46.2739C39.9785 45.9133 39.7528 45.733 39.7528 45.102C39.7528 44.5761 39.9409 43.885 41.6086 43.885C43.1008 43.885 43.6525 44.2756 43.8782 45.4776C43.9033 45.5978 43.9785 45.6729 44.0788 45.6729H45.0193C45.082 45.6729 45.1321 45.6429 45.1698 45.5978C45.2074 45.5377 45.2325 45.4776 45.2199 45.4025C45.0694 43.3291 43.9284 42.3675 41.6086 42.3675C39.5396 42.3675 38.3108 43.4192 38.3108 45.1621C38.3108 47.0702 39.5396 47.5811 41.5208 47.8214C43.8908 48.1069 44.0788 48.5126 44.0788 49.0685C44.0788 50.0451 43.4268 50.4508 41.897 50.4508C39.9785 50.4508 39.5522 49.8798 39.4142 48.738C39.4017 48.6178 39.3139 48.5276 39.201 48.5276H38.2606C38.1477 48.5276 38.0474 48.6328 38.0474 48.783C38.0474 50.2404 38.712 51.9833 41.8845 51.9833C44.2042 51.9833 45.5209 50.9015 45.5209 49.0084ZM52.3548 41.481C52.3548 42.3975 51.7278 43.1488 50.9629 43.1488C50.198 43.1488 49.5711 42.3975 49.5711 41.481C49.5711 40.5345 50.2231 39.8133 50.9629 39.8133C51.7153 39.7983 52.3548 40.5345 52.3548 41.481ZM52.1291 41.481C52.1291 40.6997 51.6024 40.0837 50.9504 40.0837C50.3109 40.0837 49.7842 40.6997 49.7842 41.481C49.7842 42.2623 50.3109 42.8933 50.9504 42.8933C51.6024 42.8783 52.1291 42.2473 52.1291 41.481ZM51.5648 42.4126H51.2388C51.2262 42.3224 51.1761 41.8416 51.1761 41.8266C51.151 41.7214 51.1259 41.6613 51.0131 41.6613H50.7372V42.4126H50.4363V40.5345H50.9755C51.1636 40.5345 51.5272 40.5345 51.5272 41.0303C51.5272 41.3759 51.3391 41.451 51.2262 41.4961C51.4394 41.5111 51.452 41.6763 51.4896 41.9167C51.5021 42.067 51.5272 42.3224 51.5648 42.4126ZM51.2137 41.0904C51.2137 40.835 51.0632 40.835 50.988 40.835H50.7372V41.3608H50.9755C51.1761 41.3608 51.2137 41.1956 51.2137 41.0904ZM17.2196 19.6802C17.2196 19.2745 17.0441 18.9139 16.7557 18.7186L9.06909 13.4149C8.9437 13.3247 8.79323 13.2797 8.64276 13.2646H8.56752C8.41705 13.2646 8.27912 13.3247 8.14118 13.4149L0.467128 18.7186C0.178724 18.9139 0.00317383 19.2895 0.00317383 19.6802L0.0157131 33.9536C0.0157131 34.149 0.103488 34.3293 0.241421 34.4344C0.379353 34.5396 0.554903 34.5396 0.705375 34.4344L5.26968 31.2943C5.55809 31.0839 5.73364 30.7233 5.73364 30.3327V23.6617C5.73364 23.2711 5.90919 22.8955 6.19759 22.7001L8.14118 21.3629C8.29166 21.2578 8.44213 21.2127 8.60514 21.2127C8.76815 21.2127 8.93116 21.2578 9.06909 21.3629L11.0127 22.7001C11.3011 22.8955 11.4766 23.2711 11.4766 23.6617V30.3327C11.4766 30.7233 11.6522 31.099 11.9406 31.2943L16.5049 34.4344C16.6428 34.5396 16.8309 34.5396 16.9689 34.4344C17.1068 34.3443 17.1946 34.149 17.1946 33.9536L17.2196 19.6802ZM59.2514 4.09956V30.6031C59.2514 30.9938 59.0759 31.3694 58.7874 31.5647L51.1009 36.8835C50.8125 37.0788 50.4613 37.0788 50.1729 36.8835L42.4863 31.5647C42.1979 31.3694 42.0224 30.9938 42.0224 30.6031V19.9656C42.0224 19.575 42.1979 19.1994 42.4863 19.0041L50.1729 13.6853C50.4613 13.49 50.8125 13.49 51.1009 13.6853L53.0194 15.0075C53.2325 15.1577 53.5084 14.9624 53.5084 14.677V0.553732C53.5084 0.13304 53.8846 -0.137404 54.1981 0.0729415L58.7749 3.13798C59.0633 3.31828 59.2514 3.6939 59.2514 4.09956ZM53.4833 23.4664C53.4833 23.3612 53.4332 23.2711 53.3705 23.226L50.7372 21.393C50.662 21.3479 50.5742 21.3479 50.499 21.393L47.8657 23.226C47.7905 23.2711 47.7529 23.3612 47.7529 23.4664V27.1174C47.7529 27.2226 47.803 27.3127 47.8657 27.3578L50.499 29.1758C50.5742 29.2209 50.662 29.2209 50.7247 29.1758L53.3579 27.3578C53.4332 27.3127 53.4708 27.2226 53.4708 27.1174V23.4664H53.4833ZM79.7908 23.3612C80.0792 23.1659 80.2547 22.7903 80.2547 22.3997V19.8304C80.2547 19.4398 80.0792 19.0642 79.7908 18.8688L72.1544 13.5501C71.866 13.3548 71.5148 13.3548 71.2264 13.5501L63.5398 18.8688C63.2514 19.0642 63.0759 19.4398 63.0759 19.8304V30.4679C63.0759 30.8736 63.2514 31.2342 63.5398 31.4295L71.1763 36.6431C71.4521 36.8384 71.8033 36.8384 72.0917 36.6431L52.3548 41.481C52.6683 41.2707 77.0196 32.8118 76.7061 32.6014L68.9694 27.2827C68.8189 27.1775 68.7311 26.9972 68.7311 26.8019V23.4664C68.7311 23.2711 68.8189 23.0908 68.9694 22.9856L71.3769 21.3179C71.5148 21.2127 71.7029 21.2127 71.8409 21.3179L74.2484 22.9856C74.3863 23.0908 74.4867 23.2711 74.4867 23.4664V26.0807C74.4867 26.5014 74.8754 26.7718 75.1889 26.5615L79.7908 23.3612ZM70.0979 23.8871C70.0477 23.9322 70.0101 23.9923 70.0101 24.0674V26.1108C70.0101 26.1859 70.0477 26.261 70.0979 26.291L71.5775 27.3127C71.6277 27.3578 71.7029 27.3578 71.7531 27.3127L73.2327 26.291C73.2829 26.246 73.3205 26.1859 73.3205 26.1108V24.0674C73.3205 23.9923 73.2829 23.9171 73.2327 23.8871L71.7531 22.8654C71.7029 22.8203 71.6277 22.8203 71.5775 22.8654L70.0979 23.8871ZM38.223 30.4228V19.8455C38.223 19.4548 38.0224 19.0792 37.734 18.8839L30.0724 13.5952C29.8091 13.4149 29.4455 13.3848 29.1445 13.5952L21.483 18.8839C21.1946 19.0792 20.994 19.4398 20.994 19.8455V30.4228C20.994 30.8435 21.2322 31.2041 21.4955 31.3844L29.1696 36.6731C29.4705 36.8835 29.8216 36.8684 30.0975 36.6731L37.7465 31.3844C37.9722 31.2342 38.1352 30.9788 38.1979 30.6783C38.2104 30.6031 38.223 30.513 38.223 30.4228ZM28.9063 11.657L28.806 11.7321H28.9439L28.9063 11.657ZM38.4612 31.2192L38.4111 31.114V31.2492L38.4612 31.2192Z" fill="white"/>
</svg>
