<svg width="80" height="85" viewBox="0 0 80 85" fill="none" xmlns="http://www.w3.org/2000/svg">
<path d="M64.3438 0.0200111C64.0074 0.0808672 63.6925 0.277274 63.4792 0.596636L61.9349 2.91422C61.5082 3.55437 61.65 4.4394 62.25 4.8936C62.4847 5.07102 62.7542 5.15696 63.0208 5.15696C63.4382 5.15696 63.848 4.94707 64.1094 4.55816L65.6536 2.24334C66.0803 1.6032 65.9411 0.718171 65.3411 0.263968C65.0398 0.0361566 64.6801 -0.0408449 64.3438 0.0200111ZM24.7682 5.5229C23.0518 5.46681 21.4314 5.83522 20 6.71496C17.7098 8.12254 16.2397 10.6362 15.5 13.7093C14.7603 16.7824 14.6971 20.4706 15.2083 24.5931C15.3759 25.9444 15.6281 27.3582 15.9193 28.7958C14.6055 29.2458 13.3304 29.7167 12.1484 30.2374C8.53909 31.8273 5.57031 33.7297 3.4401 35.9482C1.3099 38.1667 0 40.7788 0 43.594C0 46.4092 1.3099 49.0213 3.4401 51.2398C5.57031 53.4583 8.53909 55.3607 12.1484 56.9506C13.3304 57.4713 14.6055 57.9422 15.9193 58.3922C15.6281 59.8298 15.3759 61.2409 15.2083 62.5921C14.6971 66.7146 14.7603 70.4028 15.5 73.4759C16.2397 76.549 17.7098 79.0627 20 80.4703C22.2902 81.8778 25.0702 81.9764 27.9401 81.1217C30.81 80.2671 33.842 78.4813 36.9401 75.9488C37.9552 75.1189 38.9764 74.18 40 73.1932C41.0231 74.1795 42.0452 75.1193 43.0599 75.9488C46.158 78.4813 49.19 80.2671 52.0599 81.1217C54.9298 81.9764 57.7098 81.8779 60 80.4703C62.2902 79.0627 63.7603 76.549 64.5 73.4759C65.2397 70.4028 65.3029 66.7146 64.7917 62.5921C64.6243 61.2427 64.3714 59.8306 64.0807 58.395C65.3948 57.9449 66.6694 57.4714 67.8516 56.9506C71.4609 55.3607 74.4297 53.4583 76.5599 51.2398C78.6901 49.0213 80 46.4092 80 43.594C80 40.7788 78.6901 38.1667 76.5599 35.9482C74.4297 33.7297 71.4609 31.8273 67.8516 30.2374C66.6694 29.7166 65.3948 29.2431 64.0807 28.793C64.3715 27.3572 64.6243 25.9456 64.7917 24.5959C65.3029 20.4734 65.2397 16.7852 64.5 13.7121C63.7603 10.6389 62.2902 8.12531 60 6.71773C57.7098 5.31015 54.9298 5.21164 52.0599 6.06626C49.19 6.92087 46.158 8.70669 43.0599 11.2392C42.0452 12.0687 41.0231 13.0085 40 13.9948C38.9764 13.008 37.9552 12.0663 36.9401 11.2365C33.842 8.70391 30.81 6.9181 27.9401 6.06348C26.8639 5.743 25.7981 5.55655 24.7682 5.5229ZM69.2031 5.85279C69.0306 5.86801 68.858 5.91997 68.6953 6.01081L66.3333 7.32762C65.6813 7.6924 65.4282 8.55335 65.7708 9.24601C66.0095 9.73144 66.4731 10.0056 66.9531 10.0056C67.1611 10.0056 67.373 9.9541 67.5703 9.84481L69.9323 8.52523C70.5843 8.16045 70.8375 7.30227 70.4948 6.60961C70.2378 6.08799 69.7206 5.80715 69.2031 5.85279ZM24.7057 8.35335C25.4814 8.38243 26.3205 8.53142 27.2214 8.79968C29.6236 9.51503 32.4044 11.1131 35.3125 13.4903C36.215 14.2281 37.1343 15.065 38.0547 15.9465C35.4167 18.7347 32.7999 22.0195 30.2917 25.6937C26.0486 26.1689 22.069 26.9402 18.4818 27.978C18.2247 26.6884 18.0031 25.4228 17.8542 24.2216C17.3743 20.352 17.4642 16.9886 18.0833 14.4162C18.7025 11.8439 19.7972 10.1181 21.3333 9.17393C22.2934 8.58385 23.413 8.30488 24.7057 8.35335ZM55.2917 8.35612C56.5844 8.30766 57.7066 8.58662 58.6667 9.1767C60.2028 10.1208 61.2975 11.8439 61.9167 14.4162C62.5358 16.9886 62.6231 20.3548 62.1432 24.2244C61.9943 25.4255 61.7752 26.6885 61.5182 27.978C57.931 26.9402 53.9514 26.1689 49.7083 25.6937C47.2004 22.0195 44.5831 18.7377 41.9453 15.9493C42.8657 15.0678 43.7824 14.2308 44.6849 13.4931C47.593 11.1159 50.3738 9.51503 52.776 8.79968C53.6769 8.53142 54.516 8.3852 55.2917 8.35612ZM71.2292 13.0911L68.5911 13.5125C67.8632 13.6289 67.362 14.3537 67.4714 15.1287C67.5714 15.8341 68.1397 16.3374 68.7891 16.3374C68.8544 16.3374 68.919 16.3307 68.987 16.3208L71.625 15.8994C72.353 15.783 72.8567 15.0609 72.7474 14.2859C72.6381 13.5124 71.9598 12.9889 71.2292 13.0911ZM40 17.8982C42.0646 20.0769 44.1373 22.5854 46.1589 25.3749C44.1466 25.2354 42.1006 25.142 40 25.142C37.8985 25.142 35.8517 25.2353 33.8385 25.3749C35.8606 22.5848 37.9349 20.0772 40 17.8982ZM69.1094 20.3239C68.3774 20.2799 67.7419 20.8752 67.7005 21.6573C67.6565 22.4408 68.2197 23.1131 68.9557 23.1571L71.6172 23.3206C71.6439 23.3221 71.6686 23.3234 71.6953 23.3234C72.3953 23.3234 72.9821 22.7381 73.0234 21.9844C73.0674 21.2009 72.5068 20.5314 71.7708 20.4874L69.1094 20.3239ZM40 27.9808C42.8359 27.9808 45.591 28.1288 48.2474 28.3883C49.7864 30.7072 51.2828 33.1733 52.7005 35.7874C54.1188 38.4025 55.3775 41.0147 56.4948 43.594C55.3775 46.1733 54.1188 48.7855 52.7005 51.4006C51.2828 54.0147 49.7864 56.4808 48.2474 58.7997C45.591 59.0592 42.8359 59.2072 40 59.2072C37.1641 59.2072 34.409 59.0592 31.7526 58.7997C30.2129 56.48 28.7152 54.0157 27.2969 51.4006C25.8786 48.7855 24.6225 46.1705 23.5052 43.5912C24.6219 41.0138 25.8796 38.4006 27.2969 35.7874C28.7152 33.1722 30.2129 30.708 31.7526 28.3883C34.409 28.1288 37.1641 27.9808 40 27.9808ZM28.2578 28.8041C27.1377 30.5902 26.0377 32.4307 24.987 34.368C23.9371 36.3039 22.9914 38.2377 22.099 40.162C20.8404 36.9034 19.8365 33.7404 19.0964 30.7475C21.9015 29.9332 24.9772 29.2732 28.2578 28.8041ZM51.7396 28.8041C55.0212 29.2732 58.0978 29.933 60.9036 30.7475C60.1635 33.7404 59.1596 36.906 57.901 40.1647C57.008 38.239 56.0612 36.3054 55.0104 34.368C53.9601 32.4314 52.8592 30.5896 51.7396 28.8041ZM16.5365 31.5653C17.4859 35.3914 18.8483 39.4447 20.5833 43.594C18.8483 47.7434 17.4859 51.7965 16.5365 55.6227C15.3592 55.215 14.2206 54.7884 13.1693 54.3253C9.78133 52.8329 7.08776 51.0675 5.30469 49.2105C3.52162 47.3536 2.66667 45.4823 2.66667 43.594C2.66667 41.7057 3.52162 39.8344 5.30469 37.9775C7.08776 36.1205 9.78133 34.3551 13.1693 32.8627C14.2206 32.3996 15.3592 31.973 16.5365 31.5653ZM63.4609 31.5653C64.639 31.9732 65.7787 32.3993 66.8307 32.8627C70.2187 34.3551 72.9122 36.1205 74.6953 37.9775C76.4784 39.8344 77.3333 41.7057 77.3333 43.594C77.3333 45.4823 76.4784 47.3536 74.6953 49.2105C72.9122 51.0675 70.2187 52.8329 66.8307 54.3253C65.7794 54.7884 64.6408 55.215 63.4635 55.6227C62.5142 51.7964 61.1491 47.7437 59.4141 43.594C61.1487 39.4454 62.5116 35.3908 63.4609 31.5653ZM40 33.6583C34.8611 33.6583 30.6667 38.1235 30.6667 43.594C30.6667 49.0645 34.8611 53.5297 40 53.5297C45.1389 53.5297 49.3333 49.0645 49.3333 43.594C49.3333 38.1235 45.1389 33.6583 40 33.6583ZM40 36.4971C43.6977 36.4971 46.6667 39.6577 46.6667 43.594C46.6667 47.5303 43.6977 50.6909 40 50.6909C36.3023 50.6909 33.3333 47.5303 33.3333 43.594C33.3333 39.6577 36.3023 36.4971 40 36.4971ZM57.901 47.0233C59.1596 50.282 60.1635 53.4476 60.9036 56.4405C58.0978 57.255 55.0212 57.9148 51.7396 58.3839C52.8592 56.5984 53.9601 54.7566 55.0104 52.82C56.0612 50.8826 57.008 48.949 57.901 47.0233ZM22.099 47.026C22.9913 48.9499 23.9372 50.8845 24.987 52.82C26.0377 54.7573 27.1377 56.5978 28.2578 58.3839C24.9772 57.9148 21.9015 57.2548 19.0964 56.4405C19.8365 53.4476 20.8404 50.2846 22.099 47.026ZM18.4818 59.21C22.069 60.2478 26.0486 61.0191 30.2917 61.4943C32.7999 65.1685 35.4167 68.4533 38.0547 71.2415C37.1343 72.123 36.215 72.9572 35.3125 73.6949C32.4044 76.0721 29.6236 77.673 27.2214 78.3883C24.8191 79.1037 22.8695 78.9582 21.3333 78.0141C19.7972 77.0699 18.6999 75.3441 18.0807 72.7718C17.4616 70.1994 17.3743 66.8332 17.8542 62.9636C18.0031 61.7624 18.2247 60.4996 18.4818 59.21ZM61.5182 59.21C61.7752 60.4995 61.9943 61.7625 62.1432 62.9636C62.6231 66.8332 62.5358 70.1994 61.9167 72.7718C61.2975 75.3441 60.2028 77.0672 58.6667 78.0113C57.1305 78.9554 55.1809 79.1037 52.7786 78.3883C50.3764 77.673 47.593 76.0721 44.6849 73.6949C43.7824 72.9572 42.8657 72.1203 41.9453 71.2387C44.5831 68.4503 47.2004 65.1685 49.7083 61.4943C53.9514 61.0191 57.931 60.2478 61.5182 59.21ZM8.8151 60.2246C8.08044 60.1196 7.41371 60.6666 7.31771 61.4444C7.21904 62.2222 7.73288 62.9348 8.46354 63.0385L11.1068 63.4127C11.1668 63.4212 11.2252 63.4266 11.2839 63.4266C11.9425 63.4266 12.5162 62.9055 12.6042 62.1929C12.7028 61.4151 12.189 60.7025 11.4583 60.5989L8.8151 60.2246ZM33.8385 61.8131C35.8517 61.9527 37.8985 62.046 40 62.046C42.1006 62.046 44.1466 61.9526 46.1589 61.8131C44.1372 64.6026 42.0647 67.1111 40 69.2898C37.9349 67.1108 35.8606 64.6031 33.8385 61.8131ZM10.8802 67.4657L8.21615 67.5627C7.47881 67.5883 6.90175 68.243 6.92708 69.0265C6.95108 69.7944 7.54315 70.3987 8.25781 70.3987C8.27381 70.3987 8.29135 70.4002 8.30469 70.3987L10.9687 70.3017C11.7061 70.2762 12.2831 69.6215 12.2578 68.838C12.2338 68.053 11.6149 67.4132 10.8802 67.4657ZM12.0339 74.1274C11.8614 74.1086 11.6845 74.1267 11.5078 74.1856L8.95573 75.0145C8.25173 75.243 7.85565 76.0365 8.07031 76.786C8.24498 77.3977 8.77435 77.7923 9.34635 77.7923C9.47435 77.7923 9.60371 77.7711 9.73438 77.7285L12.2865 76.8996C12.9905 76.6711 13.3879 75.8776 13.1719 75.1282C13.0119 74.5661 12.5512 74.1837 12.0339 74.1274ZM14.8594 79.8632C14.5192 79.836 14.1693 79.9445 13.8906 80.1986L11.8672 82.0504C11.3085 82.56 11.2453 83.4573 11.724 84.052C11.988 84.3799 12.3623 84.5455 12.737 84.5455C13.045 84.5455 13.3535 84.4316 13.6042 84.2017L15.6276 82.3526C16.1863 81.8431 16.2495 80.9458 15.7708 80.3511C15.5302 80.0537 15.1995 79.8903 14.8594 79.8632Z" fill="white"/>
</svg>
