<svg width="102" height="107" viewBox="0 0 102 107" fill="none" xmlns="http://www.w3.org/2000/svg">
<path d="M11.8113 96.7246C11.8113 97.6556 11.5821 98.4577 11.1238 99.1309C10.6726 99.804 10.0209 100.32 9.1687 100.678C8.32365 101.036 7.31388 101.215 6.1394 101.215C5.56649 101.215 5.01864 101.183 4.49585 101.118C3.97306 101.054 3.47892 100.961 3.01343 100.839C2.55509 100.71 2.13615 100.556 1.75659 100.377V97.9492C2.39396 98.2285 3.10653 98.4827 3.89429 98.7119C4.68205 98.9339 5.48413 99.0449 6.30054 99.0449C6.96655 99.0449 7.51799 98.959 7.95483 98.7871C8.39884 98.6081 8.72827 98.3574 8.94312 98.0352C9.15796 97.7057 9.26538 97.3226 9.26538 96.8857C9.26538 96.4202 9.14006 96.0264 8.8894 95.7041C8.63875 95.3818 8.2592 95.0882 7.75073 94.8232C7.24943 94.5511 6.61922 94.2611 5.86011 93.9531C5.34448 93.7454 4.85034 93.5091 4.37769 93.2441C3.91219 92.9792 3.49683 92.6676 3.13159 92.3096C2.76636 91.9515 2.47632 91.529 2.26147 91.042C2.05379 90.5479 1.94995 89.9678 1.94995 89.3018C1.94995 88.4137 2.16121 87.6546 2.58374 87.0244C3.01343 86.3942 3.61499 85.9108 4.38843 85.5742C5.16903 85.2376 6.07853 85.0693 7.11694 85.0693C7.94051 85.0693 8.71395 85.1553 9.43726 85.3271C10.1677 85.499 10.8839 85.7425 11.5857 86.0576L10.7693 88.1309C10.1248 87.8659 9.49813 87.6546 8.8894 87.4971C8.28784 87.3395 7.67196 87.2607 7.04175 87.2607C6.49748 87.2607 6.03556 87.3431 5.65601 87.5078C5.27645 87.6725 4.98641 87.9053 4.78589 88.2061C4.59253 88.4997 4.49585 88.8506 4.49585 89.2588C4.49585 89.7171 4.60685 90.1038 4.82886 90.4189C5.05802 90.7269 5.40894 91.0098 5.88159 91.2676C6.36141 91.5254 6.97729 91.8118 7.72925 92.127C8.59578 92.485 9.32983 92.861 9.9314 93.2549C10.5401 93.6488 11.0056 94.1214 11.3279 94.6729C11.6501 95.2171 11.8113 95.901 11.8113 96.7246ZM19.3201 88.8828C20.38 88.8828 21.2895 89.1012 22.0486 89.5381C22.8077 89.9749 23.3914 90.5944 23.7996 91.3965C24.2078 92.1986 24.4119 93.1582 24.4119 94.2754V95.6289H16.4734C16.502 96.7819 16.81 97.6699 17.3972 98.293C17.9916 98.916 18.8223 99.2275 19.8894 99.2275C20.6485 99.2275 21.3289 99.1559 21.9304 99.0127C22.5391 98.8623 23.1658 98.6439 23.8103 98.3574V100.409C23.2159 100.688 22.6108 100.893 21.9949 101.021C21.379 101.15 20.6414 101.215 19.782 101.215C18.6147 101.215 17.587 100.989 16.699 100.538C15.8181 100.08 15.127 99.3994 14.6257 98.4971C14.1316 97.5947 13.8845 96.474 13.8845 95.1348C13.8845 93.8027 14.1101 92.6712 14.5613 91.7402C15.0125 90.8092 15.6462 90.1003 16.4626 89.6133C17.2791 89.1263 18.2315 88.8828 19.3201 88.8828ZM19.3201 90.7842C18.5251 90.7842 17.8806 91.042 17.3865 91.5576C16.8995 92.0732 16.613 92.8288 16.5271 93.8242H21.9412C21.934 93.2298 21.8337 92.7035 21.6404 92.2451C21.4542 91.7868 21.1677 91.4287 20.781 91.1709C20.4014 90.9131 19.9145 90.7842 19.3201 90.7842ZM34.8103 106.274V101.226C34.8103 100.939 34.8175 100.628 34.8318 100.291C34.8533 99.9544 34.8855 99.6465 34.9285 99.3672H34.7996C34.4773 99.89 34.0297 100.33 33.4568 100.688C32.8839 101.039 32.1355 101.215 31.2117 101.215C29.8152 101.215 28.6908 100.699 27.8386 99.668C26.9864 98.6296 26.5603 97.097 26.5603 95.0703C26.5603 93.724 26.7572 92.5924 27.1511 91.6758C27.545 90.7591 28.0964 90.0645 28.8054 89.5918C29.5216 89.1191 30.3523 88.8828 31.2976 88.8828C32.2071 88.8828 32.9447 89.0618 33.5105 89.4199C34.0834 89.7708 34.5417 90.2041 34.8855 90.7197H34.9714L35.2507 89.1084H37.3455V106.274H34.8103ZM31.9636 99.1846C32.6798 99.1846 33.2527 99.0485 33.6824 98.7764C34.1121 98.5042 34.4236 98.0924 34.6169 97.541C34.8103 96.9824 34.9141 96.2913 34.9285 95.4678V95.0811C34.9285 93.7347 34.71 92.7106 34.2732 92.0088C33.8363 91.307 33.0593 90.9561 31.9421 90.9561C30.9968 90.9561 30.295 91.3249 29.8367 92.0625C29.3783 92.793 29.1492 93.8099 29.1492 95.1133C29.1492 96.431 29.3783 97.4408 29.8367 98.1426C30.3022 98.8372 31.0111 99.1846 31.9636 99.1846ZM51.3318 89.1084V101H49.3445L49.0007 99.3994H48.8611C48.6104 99.8076 48.2917 100.148 47.905 100.42C47.5183 100.685 47.0886 100.882 46.616 101.011C46.1433 101.147 45.6456 101.215 45.1228 101.215C44.2276 101.215 43.4613 101.064 42.824 100.764C42.1938 100.456 41.7104 99.9831 41.3738 99.3457C41.0372 98.7083 40.8689 97.8848 40.8689 96.875V89.1084H43.4041V96.4023C43.4041 97.3262 43.5903 98.0173 43.9626 98.4756C44.3422 98.9339 44.9294 99.1631 45.7244 99.1631C46.4906 99.1631 47.0994 99.0055 47.5505 98.6904C48.0017 98.3753 48.3204 97.9098 48.5066 97.2939C48.7 96.6781 48.7966 95.9225 48.7966 95.0273V89.1084H51.3318ZM59.6892 88.8828C60.7491 88.8828 61.6586 89.1012 62.4177 89.5381C63.1768 89.9749 63.7605 90.5944 64.1687 91.3965C64.5769 92.1986 64.781 93.1582 64.781 94.2754V95.6289H56.8425C56.8712 96.7819 57.1791 97.6699 57.7664 98.293C58.3608 98.916 59.1915 99.2275 60.2585 99.2275C61.0177 99.2275 61.698 99.1559 62.2996 99.0127C62.9083 98.8623 63.5349 98.6439 64.1794 98.3574V100.409C63.585 100.688 62.9799 100.893 62.364 101.021C61.7481 101.15 61.0105 101.215 60.1511 101.215C58.9838 101.215 57.9561 100.989 57.0681 100.538C56.1873 100.08 55.4962 99.3994 54.9949 98.4971C54.5007 97.5947 54.2537 96.474 54.2537 95.1348C54.2537 93.8027 54.4792 92.6712 54.9304 91.7402C55.3816 90.8092 56.0154 90.1003 56.8318 89.6133C57.6482 89.1263 58.6007 88.8828 59.6892 88.8828ZM59.6892 90.7842C58.8943 90.7842 58.2498 91.042 57.7556 91.5576C57.2686 92.0732 56.9822 92.8288 56.8962 93.8242H62.3103C62.3031 93.2298 62.2029 92.7035 62.0095 92.2451C61.8233 91.7868 61.5369 91.4287 61.1501 91.1709C60.7706 90.9131 60.2836 90.7842 59.6892 90.7842ZM70.1628 101H67.6277V84.2852H70.1628V101ZM76.2966 89.1084V101H73.7722V89.1084H76.2966ZM75.0505 84.5537C75.4373 84.5537 75.7703 84.6576 76.0496 84.8652C76.336 85.0729 76.4792 85.431 76.4792 85.9395C76.4792 86.4408 76.336 86.7988 76.0496 87.0137C75.7703 87.2214 75.4373 87.3252 75.0505 87.3252C74.6495 87.3252 74.3093 87.2214 74.03 87.0137C73.7579 86.7988 73.6218 86.4408 73.6218 85.9395C73.6218 85.431 73.7579 85.0729 74.03 84.8652C74.3093 84.6576 74.6495 84.5537 75.0505 84.5537ZM87.8767 101H78.8425V99.4424L84.8474 91.0527H79.2078V89.1084H87.7048V90.8271L81.8181 99.0557H87.8767V101ZM95.1814 88.8828C96.2413 88.8828 97.1508 89.1012 97.9099 89.5381C98.669 89.9749 99.2527 90.5944 99.6609 91.3965C100.069 92.1986 100.273 93.1582 100.273 94.2754V95.6289H92.3347C92.3634 96.7819 92.6713 97.6699 93.2585 98.293C93.8529 98.916 94.6837 99.2275 95.7507 99.2275C96.5098 99.2275 97.1902 99.1559 97.7917 99.0127C98.4005 98.8623 99.0271 98.6439 99.6716 98.3574V100.409C99.0772 100.688 98.4721 100.893 97.8562 101.021C97.2403 101.15 96.5027 101.215 95.6433 101.215C94.476 101.215 93.4483 100.989 92.5603 100.538C91.6794 100.08 90.9884 99.3994 90.4871 98.4971C89.9929 97.5947 89.7458 96.474 89.7458 95.1348C89.7458 93.8027 89.9714 92.6712 90.4226 91.7402C90.8738 90.8092 91.5076 90.1003 92.324 89.6133C93.1404 89.1263 94.0929 88.8828 95.1814 88.8828ZM95.1814 90.7842C94.3865 90.7842 93.7419 91.042 93.2478 91.5576C92.7608 92.0732 92.4744 92.8288 92.3884 93.8242H97.8025C97.7953 93.2298 97.6951 92.7035 97.5017 92.2451C97.3155 91.7868 97.0291 91.4287 96.6423 91.1709C96.2628 90.9131 95.7758 90.7842 95.1814 90.7842Z" fill="white"/>
<path d="M70.6173 21.1859V43.6719L51.433 55.0062L51.2598 55.1637V63.5781L51.433 63.7406L78.4317 48.1812V16.8187L78.177 16.7578L70.5358 21.0031L70.5766 21.1859" fill="white"/>
<path d="M32.1874 43.875L51.4329 55.0062V63.7406L24.2305 48.1203V16.8797L24.5106 16.8391L32.1059 21.2418L32.1874 21.4957V43.875Z" fill="white"/>
<path d="M32.1874 21.4906L24.2305 16.8797L51.3718 1.25937L78.452 16.8187L70.6173 21.1859L51.3718 10.2375L32.1874 21.4906ZM34.0519 42.6562V33.4648L34.2607 33.5867L41.6625 37.8777L41.7236 37.9133V46.8152L34.0519 42.6562ZM61.1576 47.0234V38.0859L61.2085 38.0605L68.4778 33.8203L68.7019 33.6883V42.575L61.1576 47.0234ZM51.7742 52.5383L51.5654 52.325V43.6719L51.8252 43.5805L59.0944 39.3555L59.3186 39.2285V48.0898L51.7793 52.5383" fill="white"/>
<path d="M44.1076 48.359V39.1879L44.3165 39.3047L51.708 43.5957L51.7691 52.5383L44.1076 48.359ZM50.9796 11.6492L43.4352 16.0977L51.1018 20.5461L58.6411 16.1586L50.9796 11.6492ZM34.0519 30.6516V21.6074H34.2607L41.6625 25.8984L41.7236 26.066V34.8309L34.0519 30.6516Z" fill="white"/>
<path d="M41.5911 17.1641L34.0519 21.6125L41.7185 26.0609L49.2578 21.6734L41.5911 17.1641ZM61.1576 35.0391V26.2539L61.2085 26.0457L68.4778 21.8359L68.7019 21.8867V30.5754L61.1576 35.0391Z" fill="white"/>
<path d="M61.0199 17.3723L53.4909 21.8359L61.1575 26.2844L68.6967 21.8969L61.0199 17.3723ZM51.7742 40.5488L51.5653 40.3355V31.8855L51.7742 31.7789L51.8251 31.5707L59.0944 27.3457L59.3185 27.3965V36.1004L51.7793 40.5488" fill="white"/>
<path d="M44.1075 36.3746V27.3305H44.3164L51.7079 31.6215L51.7691 31.7891V40.5488L44.1075 36.3746Z" fill="white"/>
<path d="M51.6468 22.882L44.1075 27.3305L51.7742 31.7789L59.3134 27.3914L51.6468 22.882Z" fill="white"/>
</svg>
