<svg width="41" height="55" viewBox="0 0 41 55" fill="none" xmlns="http://www.w3.org/2000/svg">
<path d="M40.5313 7.84968V12.7557C40.5313 17.0792 31.5448 20.6054 20.4684 20.6054C9.39199 20.6054 0.405518 17.0792 0.405518 12.7557V7.84968C0.405518 3.5262 9.39199 0 20.4684 0C31.5448 0 40.5313 3.5262 40.5313 7.84968ZM40.5313 18.8882V29.9268C40.5313 34.2503 31.5448 37.7765 20.4684 37.7765C9.39199 37.7765 0.405518 34.2503 0.405518 29.9268V18.8882C4.7159 22.4451 12.6052 24.101 20.4684 24.101C28.3316 24.101 36.2208 22.4451 40.5313 18.8882ZM40.5313 36.0594V47.098C40.5313 51.4214 31.5448 54.9476 20.4684 54.9476C9.39199 54.9476 0.405518 51.4214 0.405518 47.098V36.0594C4.7159 39.6163 12.6052 41.2721 20.4684 41.2721C28.3316 41.2721 36.2208 39.6163 40.5313 36.0594Z" fill="white"/>
</svg>
